<?xml version="1.0" encoding="UTF-8"?>
<svg xmlns="http://www.w3.org/2000/svg" xmlns:xlink="http://www.w3.org/1999/xlink" width="40pt" height="40pt" viewBox="0 0 40 40" version="1.1">
<g id="surface1">
<path style=" stroke:none;fill-rule:nonzero;fill:rgb(0%,0%,0%);fill-opacity:1;" d="M 17.566406 3.433594 C 15.105469 3.859375 12.921875 4.695312 10.992188 5.964844 C 9.253906 7.105469 7.574219 8.746094 6.390625 10.476562 C 6.15625 10.816406 5.21875 12.410156 5.21875 12.46875 C 5.21875 12.488281 5.105469 12.757812 4.964844 13.0625 C 3.609375 16.015625 3.226562 19.703125 3.921875 23.128906 C 4.644531 26.667969 6.730469 30.113281 9.523438 32.398438 C 9.808594 32.636719 10.0625 32.84375 10.085938 32.871094 C 10.226562 33.007812 11.714844 33.9375 12.304688 34.261719 C 14.128906 35.226562 16.496094 35.9375 18.46875 36.09375 C 23.589844 36.523438 28.339844 34.765625 31.835938 31.164062 C 33.199219 29.746094 33.914062 28.730469 34.78125 26.957031 C 36 24.488281 36.625 21.539062 36.476562 19 C 36.226562 14.746094 34.546875 10.957031 31.644531 8.078125 C 30.878906 7.320312 29.503906 6.207031 28.957031 5.90625 C 28.835938 5.835938 28.679688 5.738281 28.609375 5.679688 C 28.3125 5.453125 26.773438 4.695312 26 4.390625 C 25.015625 4.015625 23.183594 3.53125 22.234375 3.398438 C 21.320312 3.269531 18.375 3.296875 17.566406 3.433594 Z M 21.410156 6.390625 C 24.207031 7.199219 26.285156 9.113281 26.824219 11.355469 C 27.050781 12.304688 27.035156 12.332031 26.128906 12.722656 C 24.050781 13.617188 20.015625 14.609375 18.425781 14.609375 C 16.714844 14.609375 14.609375 13.445312 12.425781 11.285156 C 12.015625 10.878906 11.574219 10.398438 11.433594 10.226562 C 11.035156 9.703125 11 9.871094 11.007812 11.984375 C 11.007812 13.589844 11.035156 13.964844 11.191406 14.546875 L 11.363281 15.21875 L 11.121094 15.417969 C 10.992188 15.523438 10.617188 15.800781 10.285156 16.042969 C 8.984375 17 7.503906 18.398438 7.027344 19.128906 L 6.765625 19.523438 L 6.816406 18.816406 C 7.007812 16.164062 7.929688 13.703125 9.554688 11.476562 C 10.226562 10.554688 11.824219 8.949219 12.667969 8.332031 C 13.964844 7.398438 15.757812 6.660156 17.347656 6.398438 C 18.582031 6.207031 18.636719 6.199219 19.695312 6.183594 C 20.496094 6.175781 20.792969 6.207031 21.410156 6.390625 Z M 28.589844 8.644531 C 29.332031 9.183594 30.242188 9.90625 30.3125 10.007812 C 30.382812 10.128906 29.929688 10.523438 29.296875 10.886719 C 28.824219 11.15625 28.886719 11.207031 28.6875 10.347656 C 28.636719 10.085938 28.453125 9.523438 28.296875 9.105469 C 28.128906 8.679688 28 8.3125 28 8.296875 C 28 8.234375 28.148438 8.320312 28.589844 8.644531 Z M 32.277344 12.714844 C 33.773438 14.921875 34.636719 17.714844 34.496094 19.957031 C 34.410156 21.453125 33.824219 23.582031 33.128906 24.957031 C 32.546875 26.121094 31.589844 27.253906 30.660156 27.878906 C 30.425781 28.035156 30.21875 28.15625 30.207031 28.148438 C 30.199219 28.140625 30.105469 27.460938 30 26.652344 C 29.667969 24.027344 28.992188 21.617188 28.269531 20.476562 C 28.121094 20.253906 28.035156 20.015625 28.0625 19.964844 C 28.09375 19.914062 28.21875 19.714844 28.347656 19.523438 C 28.476562 19.332031 28.636719 19.050781 28.714844 18.914062 C 28.78125 18.765625 28.9375 18.453125 29.070312 18.21875 C 29.304688 17.757812 30.050781 16.175781 30.277344 15.652344 C 30.355469 15.488281 30.566406 14.992188 30.757812 14.566406 C 30.949219 14.128906 31.261719 13.417969 31.445312 12.984375 C 31.636719 12.539062 31.808594 12.175781 31.84375 12.175781 C 31.878906 12.175781 32.070312 12.417969 32.277344 12.714844 Z M 11.957031 17.582031 C 12.035156 18.183594 12.582031 19.355469 13 19.816406 C 13.296875 20.140625 13.320312 20.199219 13.234375 20.390625 C 13.175781 20.511719 13.09375 20.609375 13.050781 20.609375 C 12.9375 20.609375 12.078125 21.695312 11.46875 22.609375 C 10.390625 24.21875 9.574219 26.445312 9.566406 27.816406 L 9.554688 28.128906 L 9.347656 27.871094 C 9.042969 27.496094 8.398438 26.148438 8.207031 25.476562 C 7.964844 24.617188 7.984375 23.042969 8.253906 22.128906 C 8.6875 20.652344 9.722656 19.042969 11.050781 17.792969 C 11.433594 17.425781 11.78125 17.128906 11.824219 17.128906 C 11.859375 17.128906 11.921875 17.339844 11.957031 17.582031 Z M 23.09375 25.511719 C 24.625 25.722656 26.085938 26.296875 27.183594 27.140625 C 27.6875 27.523438 28.617188 28.46875 28.765625 28.746094 C 28.878906 28.964844 28.824219 29.027344 28.128906 29.460938 C 26.894531 30.226562 25.601562 30.417969 24.582031 29.984375 C 23.835938 29.667969 23.417969 29.234375 22.460938 27.78125 C 21.9375 27 21.042969 25.511719 21.042969 25.433594 C 21.042969 25.347656 22.175781 25.390625 23.09375 25.511719 Z M 19.164062 25.808594 C 19.191406 25.851562 19.253906 26.15625 19.304688 26.488281 C 19.417969 27.21875 19.894531 28.445312 20.355469 29.226562 C 21.164062 30.582031 22.566406 31.582031 24.085938 31.878906 C 24.800781 32.015625 26.347656 32.007812 26.957031 31.871094 C 27.15625 31.816406 27.148438 31.835938 26.914062 31.964844 C 26.027344 32.476562 23.957031 33.085938 22.410156 33.296875 C 20.398438 33.574219 17.886719 33.253906 15.617188 32.425781 C 14.617188 32.0625 12.84375 31.175781 12.0625 30.652344 C 11.035156 29.964844 10.792969 29.78125 10.816406 29.695312 C 10.851562 29.582031 13.617188 28.070312 15.609375 27.085938 C 17.886719 25.964844 19.007812 25.554688 19.164062 25.808594 Z M 19.164062 25.808594 "/>
</g>
</svg>
